# xmcd
#
# Track frame offsets:
#	151
#	13602
#	25525
#	40399
#	51843
#	64321
#
# Disc length: 890 seconds
#
# Revision: 2
# Processed by: cddbd v1.5.2PL0 Copyright (c) Steve Scherf et al.
# Submitted via: EasyCDDAExtractor 9.0.0.1
#
DISCID=47037806
DTITLE=Mike Shannon - SP du Rock'N Roll au Country
DYEAR=1900
DGENRE=
TTITLE0=Tennessee waltz
TTITLE1=Hold me
TTITLE2=Tomrrow's night
TTITLE3=Tomorrow's clown
TTITLE4=Oh Carol
TTITLE5=Jingle Villeroy
EXTD=
EXTT0=
EXTT1=
EXTT2=
EXTT3=
EXTT4=
EXTT5=
PLAYORDER=
